<svg id="Capa_1" data-name="Capa 1" xmlns="http://www.w3.org/2000/svg" xmlns:xlink="http://www.w3.org/1999/xlink" viewBox="0 0 564 605.9"><defs><style>.cls-1{fill:#272a36;}.cls-2,.cls-3,.cls-4{opacity:0.37;}.cls-2{fill:url(#Degradado_sin_nombre_47);}.cls-3{fill:url(#Degradado_sin_nombre_51);}.cls-4{fill:url(#Degradado_sin_nombre_11);}</style><linearGradient id="Degradado_sin_nombre_47" x1="508.83" y1="639.94" x2="463.4" y2="477.61" gradientUnits="userSpaceOnUse"><stop offset="0.13" stop-color="#5988f4" stop-opacity="0.3"/><stop offset="1" stop-color="#fff" stop-opacity="0.24"/></linearGradient><linearGradient id="Degradado_sin_nombre_51" x1="4605.69" y1="6090.05" x2="4514.26" y2="5763.31" gradientTransform="translate(4685.9 6015.91) rotate(180)" gradientUnits="userSpaceOnUse"><stop offset="0.28" stop-color="#5988f4" stop-opacity="0.3"/><stop offset="1" stop-color="#fff" stop-opacity="0.24"/></linearGradient><linearGradient id="Degradado_sin_nombre_11" x1="325.66" y1="18.02" x2="330.52" y2="314.3" gradientTransform="matrix(1.02, 0, 0, 1.02, -49.03, -59.46)" gradientUnits="userSpaceOnUse"><stop offset="0.13" stop-color="#3c3c3b" stop-opacity="0.7"/><stop offset="1" stop-color="#fff" stop-opacity="0.24"/></linearGradient></defs><rect class="cls-1" width="564" height="605.9"/><path class="cls-2" d="M368.25,614.73s8.33-108.17,82.64-124.23S570.52,383.26,570.52,383.26V614.73Z"/><path class="cls-3" d="M342.44-28.41s-15.16,217.72-150.55,250S-26.06,437.48-26.06,437.48V-28.41Z"/><path class="cls-4" d="M572.74,122.24a17.66,17.66,0,0,1-3,10.09c-16.18,24.14-96.05,129.38-229.41,78.3-109.87-42.09-262-6-318.72,10.18A17.73,17.73,0,0,1-1,203.81L-1.6-5.73,571.18-4Z"/></svg>