<svg id="Capa_1" data-name="Capa 1" xmlns="http://www.w3.org/2000/svg" viewBox="0 0 495.06 482.28"><defs><style>.cls-1{fill:#272a36;fill-rule:evenodd;}</style></defs><path class="cls-1" d="M174.4,220.69h62.69a9.75,9.75,0,0,0,9.75-9.76V200.48a41,41,0,0,0-17-33.31,30.64,30.64,0,1,0-48.15,0,41.13,41.13,0,0,0-17,33.29v10.46a9.76,9.76,0,0,0,9.76,9.76Zm52.94-19.51H184.15v-.71a21.6,21.6,0,0,1,43.19,0v.7Zm-21.6-64.09a11.14,11.14,0,1,1-11.14,11.15A11.16,11.16,0,0,1,205.74,137.09Z"/><path class="cls-1" d="M237.79,252.72a9.76,9.76,0,0,0,9.76,9.76h73.14a9.76,9.76,0,0,0,0-19.51H247.55A9.75,9.75,0,0,0,237.79,252.72Z"/><path class="cls-1" d="M174.4,262.48h31.34a9.76,9.76,0,0,0,0-19.51H174.4a9.76,9.76,0,1,0,0,19.51Z"/><path class="cls-1" d="M411.18,235.39l-38.94-38.95V137.79a9.72,9.72,0,0,0-2.87-6.9L317.13,78.64a9.77,9.77,0,0,0-6.89-2.85H153.49a30.69,30.69,0,0,0-30.65,30.64v90L83.91,235.37a7.38,7.38,0,0,0-.65.73c-.09.1-.17.22-.26.34s-.22.27-.31.41-.17.29-.25.43-.16.26-.24.41-.14.28-.21.43-.14.28-.2.43a2.72,2.72,0,0,0-.15.43l-.18.47c0,.14-.07.28-.1.44a4.21,4.21,0,0,0-.12.48,4.46,4.46,0,0,0-.07.51,2.14,2.14,0,0,0-.08.44c0,.3,0,.61,0,.92V399a9.74,9.74,0,0,0,9.75,9.75H404.27A9.75,9.75,0,0,0,414,399V242.27a9.68,9.68,0,0,0-2.85-6.88ZM100.55,258.6l108.2,58.26C175.16,337,125.17,367,100.55,381.78V258.6ZM241.8,319.79a11.11,11.11,0,0,1,11.48,0l115.78,69.48H126L241.8,319.79ZM394.52,258.6V381.78c-18.42-11-72.08-43.24-108.2-64.92l108.2-58.26Zm-6.41-18.7-15.87,8.55V224l15.87,15.87ZM349.37,138.49H309.54V98.64l39.83,39.85ZM153.49,95.3H290v52.94a9.75,9.75,0,0,0,9.76,9.75h52.94V259l-85.87,46.23-3.55-2.14a30.64,30.64,0,0,0-31.55,0c-1.11.67-2.28,1.39-3.54,2.14L142.36,259V106.43A11.15,11.15,0,0,1,153.49,95.3ZM122.84,248.45,107,239.9,122.84,224Z"/></svg>