<svg id="Capa_1" data-name="Capa 1" xmlns="http://www.w3.org/2000/svg" viewBox="0 0 495.06 482.28"><defs><style>.cls-1{fill:#272a36;fill-rule:evenodd;}</style></defs><path class="cls-1" d="M413.47,413H403.15V402.68a10.34,10.34,0,0,0-20.67,0V413h-42V402.68a10.33,10.33,0,1,0-20.65,0V413h-41.3V402.68a10.34,10.34,0,0,0-20.67,0V413H216.54V402.68a10.33,10.33,0,1,0-20.66,0V413h-41.3V402.68a10.33,10.33,0,1,0-20.65,0V413h-42V91.46a10.33,10.33,0,1,0-20.66,0V423.35a10.32,10.32,0,0,0,10.32,10.32H413.47a10.33,10.33,0,1,0,0-20.65Z"/><path class="cls-1" d="M392.83,184.41A31,31,0,0,0,368,233.88l-19.75,29-63.7-45.51,40.71-74.62a31,31,0,1,0-18.12-9.9l-39.5,72.43-55.4-39.55a10.31,10.31,0,0,0-13.27,1.07l-83.3,82.62A10.32,10.32,0,1,0,130.18,264l77.1-76.49,50.34,36-53.85,98.76-31.54-31.54a10.37,10.37,0,0,0-14.58-.06l-42,41.31a10.32,10.32,0,1,0,14.49,14.71l34.71-34.11,34,34.06a10.32,10.32,0,0,0,16.37-2.36l59.28-108.67,70.25,50.17a10.33,10.33,0,0,0,14.53-2.58l25.77-37.8a30.14,30.14,0,0,0,7.72,1,31,31,0,0,0,0-62Zm-62.68-82.62a10.33,10.33,0,1,1-10.33,10.34,10.32,10.32,0,0,1,10.33-10.34Zm62.68,123.93a10.33,10.33,0,1,1,10.32-10.32A10.33,10.33,0,0,1,392.83,225.72Z"/></svg>