<svg id="Capa_1" data-name="Capa 1" xmlns="http://www.w3.org/2000/svg" viewBox="0 0 495.06 482.28"><defs><style>.cls-1{fill:#272a36;fill-rule:evenodd;}</style></defs><path class="cls-1" d="M421.83,329l-10.39-10.94a123.79,123.79,0,0,0-17.58-59.7,298.24,298.24,0,0,0-45-57.7l-8.57-8.56a29,29,0,0,0-33.1-5.63V122.77a29,29,0,0,0-29-29H123.5a29,29,0,0,0-29,29v272a29,29,0,0,0,29,29H278.19a29,29,0,0,0,29-29V385h13.55l22.2,1.21,11,11a9.67,9.67,0,0,0,13.71,0l54-54.69a9.69,9.69,0,0,0,.13-13.46Zm-308-206.24a9.68,9.68,0,0,1,9.67-9.67H278.19a9.66,9.66,0,0,1,9.66,9.67v9.66h-174v-9.66Zm0,29h174v47a29,29,0,0,0-38,25.92,29.18,29.18,0,0,0-24.58,16.46l-21.67-21.68a29.15,29.15,0,0,0-10-6.51l14.16-14.44A9.66,9.66,0,1,0,194,185l-31.42,32-12.88-12.76A9.67,9.67,0,1,0,136,217.93l18.32,18.15a29,29,0,0,0,8.21,24.4L184.09,282l-21.56,22-12.88-12.78A9.67,9.67,0,1,0,136,304.93l19.78,19.63a9.76,9.76,0,0,0,6.81,2.81h.07a9.67,9.67,0,0,0,6.83-2.91l28.25-28.79,31.38,31.4H222.9a29.15,29.15,0,0,0-27.38,38.67H113.83v-214Zm174,243a9.68,9.68,0,0,1-9.66,9.67H123.5a9.7,9.7,0,0,1-9.67-9.67v-9.67c51.71,0,128.25,0,174-.1v9.77Zm72.91-18.12L354,369.85a9.67,9.67,0,0,0-6.36-2.81l-26.17-1.28-.48,0h0c-48,.06-21,.13-99.36.13a9.9,9.9,0,0,1-8.35-9.69,9.73,9.73,0,0,1,9.65-9.77h29.7a9.67,9.67,0,0,0,6.85-16.49c.06.06-1.48-1.38-83.21-83.12a9.66,9.66,0,1,1,13.67-13.66l54.68,54.69a9.68,9.68,0,1,0,13.68-13.69l-13.68-13.66v0a9.66,9.66,0,0,1,13.68-13.65h0l13.67,13.68a9.67,9.67,0,0,0,13.68-13.68l-13.68-13.66h0a9.68,9.68,0,1,1,13.68-13.69l13.66,13.69A9.68,9.68,0,1,0,313,219.45a9.66,9.66,0,1,1,13.67-13.66l8.56,8.56a279.82,279.82,0,0,1,42.1,54,104.45,104.45,0,0,1,14.87,53.6V322a9.63,9.63,0,0,0,2.66,6.66l6.54,6.89Z"/><path class="cls-1" d="M259.45,329.92h0Z"/></svg>