<svg id="Capa_1" data-name="Capa 1" xmlns="http://www.w3.org/2000/svg" viewBox="0 0 495.06 482.28"><defs><style>.cls-1{fill:#272a36;}</style></defs><g id="Glyphs_UI_Element-2" data-name="Glyphs UI Element-2"><g id="layers-2"><path id="Shape-32" class="cls-1" d="M256.8,218.91H127a17.54,17.54,0,0,0-18.55,16.44,18.57,18.57,0,0,0,0,2.11V385.84a17.53,17.53,0,0,0,16.45,18.55,14.72,14.72,0,0,0,2.1,0H256.8A17.52,17.52,0,0,0,275.35,388a18.57,18.57,0,0,0,0-2.11V237.46a17.52,17.52,0,0,0-16.44-18.55A18.57,18.57,0,0,0,256.8,218.91Z"/><path id="Shape-33" class="cls-1" d="M312.45,163.26H164.06v37.1H293.9V348.75H331V181.81a17.54,17.54,0,0,0-16.45-18.55A18.39,18.39,0,0,0,312.45,163.26Z"/><path id="Shape-34" class="cls-1" d="M368.09,107.62H219.71v37.09H349.54V293.1h37.1V126.17a17.52,17.52,0,0,0-16.44-18.55A14.86,14.86,0,0,0,368.09,107.62Z"/></g></g></svg>