<svg id="Capa_1" data-name="Capa 1" xmlns="http://www.w3.org/2000/svg" viewBox="0 0 495.06 482.28"><defs><style>.cls-1{fill:#272a36;}</style></defs><path class="cls-1" d="M392.81,261.05l0-22.4-11.6-6.48a133.89,133.89,0,0,0-9.35-34.75L379,186.89,367.79,167.5l-13.28.2A135.19,135.19,0,0,0,329,142.33l1-12.77-19.42-11.18-11.35,6.79a133.84,133.84,0,0,0-34.8-9.19l-5.55-11.55-22.4,0L230,116.06a133.89,133.89,0,0,0-34.75,9.35l-10.53-7.19-19.39,11.23.2,13.27a135.49,135.49,0,0,0-25.37,25.49l-12.77-1L116.2,186.66,123,198a133.63,133.63,0,0,0-9.19,34.8l-11.55,5.55,0,22.4,11.6,6.47A133.86,133.86,0,0,0,123.23,302L116,312.53l11.23,19.38,13.27-.19A135.49,135.49,0,0,0,166,357.09l-1,12.76L184.48,381l11.36-6.78a133.63,133.63,0,0,0,34.8,9.19L236.19,395l22.4,0,6.47-11.6A133.86,133.86,0,0,0,299.82,374l10.53,7.18L329.73,370l-.19-13.28a135.19,135.19,0,0,0,25.37-25.49l12.76,1,11.18-19.42-6.78-11.35a133.84,133.84,0,0,0,9.19-34.8ZM247.53,323.44a73.73,73.73,0,1,1,73.73-73.73A73.73,73.73,0,0,1,247.53,323.44Z"/></svg>