<svg id="Capa_1" data-name="Capa 1" xmlns="http://www.w3.org/2000/svg" viewBox="0 0 495.06 482.28"><defs><style>.cls-1{fill:#272a36;}</style></defs><g id="Glyphs_Tables" data-name="Glyphs Tables"><g id="tile-56"><path id="Shape-25" class="cls-1" d="M284,104.46H120a17.22,17.22,0,0,0-18.22,16.16,14.16,14.16,0,0,0,0,2.06v18.23a17.22,17.22,0,0,0,16.15,18.22,17.87,17.87,0,0,0,2.07,0H284A17.22,17.22,0,0,0,302.2,143a17.7,17.7,0,0,0,0-2.06V122.68A17.22,17.22,0,0,0,286,104.46,17.7,17.7,0,0,0,284,104.46Z"/><path id="Shape-26" class="cls-1" d="M284,213.8H120A17.23,17.23,0,0,0,101.74,230a14.3,14.3,0,0,0,0,2.07v18.22a17.22,17.22,0,0,0,16.15,18.22,14.3,14.3,0,0,0,2.07,0H284a17.21,17.21,0,0,0,18.22-16.15,17.87,17.87,0,0,0,0-2.07V232A17.22,17.22,0,0,0,286,213.8,17.7,17.7,0,0,0,284,213.8Z"/><path id="Shape-27" class="cls-1" d="M284,323.15H120a17.22,17.22,0,0,0-18.22,16.15,14.3,14.3,0,0,0,0,2.07v18.22a17.22,17.22,0,0,0,16.15,18.23,17.87,17.87,0,0,0,2.07,0H284a17.22,17.22,0,0,0,18.22-16.16,17.87,17.87,0,0,0,0-2.07V341.37A17.22,17.22,0,0,0,286,323.15,17.7,17.7,0,0,0,284,323.15Z"/><path id="Shape-28" class="cls-1" d="M375.1,104.46H356.87a17.22,17.22,0,0,0-18.22,16.16,17.7,17.7,0,0,0,0,2.06V359.59a17.22,17.22,0,0,0,16.16,18.23,17.7,17.7,0,0,0,2.06,0H375.1a17.22,17.22,0,0,0,18.22-16.16,17.87,17.87,0,0,0,0-2.07V122.68a17.22,17.22,0,0,0-16.16-18.22A17.7,17.7,0,0,0,375.1,104.46Z"/></g></g></svg>